<svg xmlns="http://www.w3.org/2000/svg" width="32" height="32" viewBox="0 0 32 32" fill="none">
  <path d="M16 2C16 2 14 8 10 14C6 20 3 24 3 24C3 24 9 22 16 30C23 22 29 24 29 24C29 24 26 20 22 14C18 8 16 2 16 2Z" fill="#4a3a2e"/>
  <line x1="16" y1="10" x2="16" y2="26" stroke="#faf8f6" stroke-width="1.2"/>
  <path d="M16 16C14 14 11 13.5 9 14" stroke="#faf8f6" stroke-width="1" fill="none" stroke-linecap="round"/>
  <path d="M16 20C18 18 21 17.5 23 18" stroke="#faf8f6" stroke-width="1" fill="none" stroke-linecap="round"/>
</svg>
